<?xml version="1.0" encoding="UTF-8" standalone="no"?>
<!-- Created with Inkscape (http://www.inkscape.org/) -->

<svg
   xmlns:dc="http://purl.org/dc/elements/1.1/"
   xmlns:cc="http://creativecommons.org/ns#"
   xmlns:rdf="http://www.w3.org/1999/02/22-rdf-syntax-ns#"
   xmlns:svg="http://www.w3.org/2000/svg"
   xmlns="http://www.w3.org/2000/svg"
   xmlns:sodipodi="http://sodipodi.sourceforge.net/DTD/sodipodi-0.dtd"
   xmlns:inkscape="http://www.inkscape.org/namespaces/inkscape"
   width="128"
   height="128"
   viewBox="0 0 128 128"
   id="svg2"
   version="1.1"
   inkscape:version="0.92.4 5da689c313, 2019-01-14"
   sodipodi:docname="os_refind.svg"
   inkscape:export-xdpi="90"
   inkscape:export-ydpi="90">
  <defs
     id="defs4" />
  <sodipodi:namedview
     id="base"
     pagecolor="#ffffff"
     bordercolor="#666666"
     borderopacity="1.0"
     inkscape:pageopacity="0.0"
     inkscape:pageshadow="2"
     inkscape:zoom="2.2591968"
     inkscape:cx="55.597132"
     inkscape:cy="56.501729"
     inkscape:document-units="px"
     inkscape:current-layer="layer1"
     showgrid="true"
     units="px"
     inkscape:window-width="1920"
     inkscape:window-height="1054"
     inkscape:window-x="0"
     inkscape:window-y="26"
     inkscape:window-maximized="1"
     inkscape:snap-bbox="true"
     inkscape:snap-bbox-edge-midpoints="true">
    <inkscape:grid
       type="xygrid"
       id="grid4154" />
  </sodipodi:namedview>
  <metadata
     id="metadata7">
    <rdf:RDF>
      <cc:Work
         rdf:about="">
        <dc:format>image/svg+xml</dc:format>
        <dc:type
           rdf:resource="http://purl.org/dc/dcmitype/StillImage" />
        <dc:title />
        <dc:creator>
          <cc:Agent>
            <dc:title />
          </cc:Agent>
        </dc:creator>
        <dc:publisher>
          <cc:Agent>
            <dc:title />
          </cc:Agent>
        </dc:publisher>
        <cc:license
           rdf:resource="" />
      </cc:Work>
    </rdf:RDF>
  </metadata>
  <g
     inkscape:label="Layer 1"
     inkscape:groupmode="layer"
     id="layer1"
     transform="translate(0,-924.36216)"
     style="display:inline">
    <path
       style="fill:#88c0d0;fill-opacity:1;stroke:none;stroke-width:1;stroke-linecap:round;stroke-linejoin:miter;stroke-miterlimit:4;stroke-dasharray:none;stroke-opacity:1"
       d="M 64.800781,18.960938 A 34,34 0 0 0 34.556641,35.949219 34,34 0 0 0 47,82.394531 34,34 0 0 0 76.478516,84.5625 l 12.691406,21.98242 c 1.385,2.39889 4.431188,3.21508 6.830078,1.83008 2.39889,-1.385 3.215078,-4.43119 1.830078,-6.83008 L 85.132812,79.552734 a 34,34 0 0 0 8.123047,-9.314453 4,4 0 0 0 0.1875,-0.289062 4,4 0 0 0 -1.46289,-5.462891 4,4 0 0 0 -5.462891,1.462891 A 26,26 0 0 1 51,75.466797 26,26 0 0 1 41.482422,39.949219 26,26 0 0 1 77,30.433594 26,26 0 0 1 89.099609,46.224609 l -4.505859,1.207032 6.123047,6.123047 6.125,6.125 2.240234,-8.365235 2.242189,-8.365234 -4.501954,1.205078 A 34,34 0 0 0 81,23.505859 34,34 0 0 0 64.800781,18.960938 Z"
       transform="translate(0,924.36216)"
       id="path4136"
       inkscape:connector-curvature="0" />
  </g>
</svg>
